#N canvas 788 146 1007 831 12;
#X obj 62 163 mrpeach/unpackOSC;
#X obj 62 200 mrpeach/pipelist;
#X obj 101 431 vsl 15 128 0 1 0 0 empty empty empty 0 -9 0 10 -262144
-1 -1 6377 0;
#X msg 62 95 port 3000;
#X obj 62 129 mrpeach/udpreceive;
#X obj 62 71 bng 15 250 50 0 empty empty empty 17 7 0 10 -262144 -1
-1;
#X obj 81 431 vsl 15 128 0 1 0 0 empty empty empty 0 -9 0 10 -262144
-1 -1 6398 0;
#X obj 121 431 vsl 15 128 0 1 0 0 empty empty empty 0 -9 0 10 -262144
-1 -1 9550 0;
#X obj 161 499 vsl 15 128 0 1 0 0 empty empty empty 0 -9 0 10 -262144
-1 -1 6350 0;
#X obj 141 499 vsl 15 128 0 1 0 0 empty empty empty 0 -9 0 10 -262144
-1 -1 6350 0;
#X obj 181 499 vsl 15 128 0 1 0 0 empty empty empty 0 -9 0 10 -262144
-1 -1 6350 0;
#X obj 221 554 vsl 15 128 0 1 0 0 empty empty empty 0 -9 0 10 -262144
-1 -1 10573 0;
#X obj 201 554 vsl 15 128 0 1 0 0 empty empty empty 0 -9 0 10 -262144
-1 -1 8843 0;
#X obj 241 554 vsl 15 128 0 1 0 0 empty empty empty 0 -9 0 10 -262144
-1 -1 2718 0;
#N canvas 0 50 1016 300 dataRemap 0;
#X obj 52 87 inlet;
#X obj 52 173 outlet;
#X obj 52 115 * 0.5;
#X obj 52 142 + 0.5;
#X obj 105 87 inlet;
#X obj 105 173 outlet;
#X obj 105 115 * 0.5;
#X obj 105 142 + 0.5;
#X obj 157 87 inlet;
#X obj 157 173 outlet;
#X obj 157 115 * 0.5;
#X obj 157 142 + 0.5;
#X obj 208 87 inlet;
#X obj 208 173 outlet;
#X obj 208 115 * 0.5;
#X obj 208 142 + 0.5;
#X obj 258 87 inlet;
#X obj 258 173 outlet;
#X obj 258 115 * 0.5;
#X obj 258 142 + 0.5;
#X obj 311 87 inlet;
#X obj 311 173 outlet;
#X obj 311 115 * 0.5;
#X obj 311 142 + 0.5;
#X obj 363 87 inlet;
#X obj 363 173 outlet;
#X obj 363 115 * 0.5;
#X obj 363 142 + 0.5;
#X obj 413 87 inlet;
#X obj 413 173 outlet;
#X obj 413 115 * 0.5;
#X obj 413 142 + 0.5;
#X obj 463 87 inlet;
#X obj 463 173 outlet;
#X obj 463 115 * 0.5;
#X obj 463 142 + 0.5;
#X connect 0 0 2 0;
#X connect 2 0 3 0;
#X connect 3 0 1 0;
#X connect 4 0 6 0;
#X connect 6 0 7 0;
#X connect 7 0 5 0;
#X connect 8 0 10 0;
#X connect 10 0 11 0;
#X connect 11 0 9 0;
#X connect 12 0 14 0;
#X connect 14 0 15 0;
#X connect 15 0 13 0;
#X connect 16 0 18 0;
#X connect 18 0 19 0;
#X connect 19 0 17 0;
#X connect 20 0 22 0;
#X connect 22 0 23 0;
#X connect 23 0 21 0;
#X connect 24 0 26 0;
#X connect 26 0 27 0;
#X connect 27 0 25 0;
#X connect 28 0 30 0;
#X connect 30 0 31 0;
#X connect 31 0 29 0;
#X connect 32 0 34 0;
#X connect 34 0 35 0;
#X connect 35 0 33 0;
#X coords 0 -1 1 1 167 20 1 100 100;
#X restore 81 398 pd dataRemap;
#X obj 62 359 unpack s f f f f f f f f f;
#X text 76 566 ax;
#X text 96 566 ay;
#X text 116 566 az;
#X text 136 634 gx;
#X text 156 634 gy;
#X text 176 634 gz;
#X text 195 690 mx;
#X text 215 690 my;
#X text 235 690 mz;
#X obj 62 42 loadbang;
#X obj 375 398 bng 15 250 50 0 empty empty empty 17 7 0 10 -262144
-1 -1;
#X obj 375 359 route accelerometer gyroscope magnetometer;
#X obj 472 416 bng 15 250 50 0 empty empty empty 17 7 0 10 -262144
-1 -1;
#X obj 569 440 bng 15 250 50 0 empty empty empty 17 7 0 10 -262144
-1 -1;
#X text 275 398 accelerometer;
#X text 400 415 gyroscope;
#X text 475 440 magnetometer;
#X obj 776 359 unpack i f;
#X obj 62 231 route /streamo /repetitions /gesture;
#X floatatom 776 395 5 0 0 0 - - -;
#X floatatom 843 436 5 0 0 0 - - -;
#X text 676 396 Gesture index;
#X text 701 438 Gesture progression;
#X connect 0 0 1 0;
#X connect 0 1 1 1;
#X connect 1 0 34 0;
#X connect 3 0 4 0;
#X connect 4 0 0 0;
#X connect 5 0 3 0;
#X connect 14 0 6 0;
#X connect 14 1 2 0;
#X connect 14 2 7 0;
#X connect 14 3 9 0;
#X connect 14 4 8 0;
#X connect 14 5 10 0;
#X connect 14 6 12 0;
#X connect 14 7 11 0;
#X connect 14 8 13 0;
#X connect 15 1 14 0;
#X connect 15 2 14 1;
#X connect 15 3 14 2;
#X connect 15 4 14 3;
#X connect 15 5 14 4;
#X connect 15 6 14 5;
#X connect 15 7 14 6;
#X connect 15 8 14 7;
#X connect 15 9 14 8;
#X connect 25 0 5 0;
#X connect 27 0 26 0;
#X connect 27 1 28 0;
#X connect 27 2 29 0;
#X connect 33 0 35 0;
#X connect 33 1 36 0;
#X connect 34 0 15 0;
#X connect 34 1 27 0;
#X connect 34 2 33 0;
